<?xml version="1.0" standalone="no"?><!DOCTYPE svg PUBLIC "-//W3C//DTD SVG 1.1//EN" "http://www.w3.org/Graphics/SVG/1.1/DTD/svg11.dtd">
<svg t="1737534879047" class="icon" viewBox="0 0 1024 1024" version="1.1" xmlns="http://www.w3.org/2000/svg" 
p-id="3446" xmlns:xlink="http://www.w3.org/1999/xlink" width="40" height="60">
<path d="M0 227.555556c0-34.133333 22.755556-56.888889 56.888889-56.888889h910.222222c34.133333 0 56.888889 22.755556 56.888889 56.888889s-22.755556 56.888889-56.888889 56.888888H56.888889c-34.133333 0-56.888889-22.755556-56.888889-56.888888z m967.111111 227.555555H56.888889c-34.133333 0-56.888889 22.755556-56.888889 56.888889s22.755556 56.888889 56.888889 56.888889h910.222222c34.133333 0 56.888889-22.755556 56.888889-56.888889s-22.755556-56.888889-56.888889-56.888889z m0 284.444445H56.888889c-34.133333 0-56.888889 22.755556-56.888889 56.888888s22.755556 56.888889 56.888889 56.888889h910.222222c34.133333 0 56.888889-22.755556 56.888889-56.888889s-22.755556-56.888889-56.888889-56.888888z" fill="#FFFFFF" p-id="3447"></path></svg>